<?xml version="1.0" encoding="UTF-8" standalone="no"?>
<!DOCTYPE svg PUBLIC "-//W3C//DTD SVG 1.1//EN" "http://www.w3.org/Graphics/SVG/1.1/DTD/svg11.dtd">
<svg width="100%" height="100%" viewBox="0 0 1173 356" version="1.1" xmlns="http://www.w3.org/2000/svg" xmlns:xlink="http://www.w3.org/1999/xlink" xml:space="preserve" xmlns:serif="http://www.serif.com/" style="fill-rule:evenodd;clip-rule:evenodd;stroke-linejoin:round;stroke-miterlimit:2;">
    <g transform="matrix(1,0,0,1,-422.833,-842.169)">
        <g transform="matrix(1,0,0,1,18.547,0)">
            <g transform="matrix(0.66642,0,0,0.66642,504.232,213.193)">
                <g transform="matrix(4.56407,0,0,4.96293,-3955.19,-4101.79)">
                    <path d="M978.04,1031.63C976.725,1032.4 974.159,1034.14 975.622,1037.02C977.085,1039.89 973.892,1058.18 972.487,1066.69C972.022,1069.51 967.173,1090.56 968.873,1096.99C969.771,1100.39 972.984,1102.99 974.659,1101.25C976.262,1099.58 976.159,1093.82 977.287,1089.39C978.621,1084.16 982.073,1071.37 982.281,1067.59C982.552,1062.66 982.257,1054.08 983.532,1052.34C984.807,1050.6 989.873,1069.3 991.812,1073.97C993.752,1078.64 1004.32,1091.07 1005.23,1093.72C1006.13,1096.37 1005.67,1098 1007.45,1099.91C1009.24,1101.83 1009.16,1099.72 1012.05,1099.14C1014.22,1098.71 1014.25,1102.26 1016.83,1100.69C1017.53,1100.27 1017.18,1089.24 1018.53,1075.21C1019.74,1062.78 1022.65,1047.34 1023.22,1044.51C1024.43,1038.35 1025.06,1035.53 1026.07,1032.9C1027.07,1030.27 1018.6,1030.63 1015.19,1031.99C1011.77,1033.35 1013.52,1040.22 1012.84,1047.92C1012.55,1051.23 1011.54,1061.41 1011.06,1068.61C1010.41,1078.17 1010.15,1084.7 1008.49,1084.53C1006.1,1084.29 1002.2,1073.97 1001.62,1069.37C1001.06,1064.77 996.908,1046.09 994.099,1041.24C991.289,1036.4 989.997,1033.53 987.862,1032.23C985.726,1030.93 980.403,1030.23 978.04,1031.63Z" style="fill:rgb(255,0,191);"/>
                </g>
                <path d="M852.615,1025.06C831.598,1040.48 785.039,1102.29 772.513,1133.19C759.988,1164.09 742.609,1202.9 742.918,1230.99C743.228,1259.07 763.041,1329.19 799.546,1349.78C836.052,1370.37 860.233,1356.59 872.208,1353.6C884.183,1350.6 947.378,1269.14 961.333,1231.44C975.288,1193.75 978.621,1125.98 976.31,1112.38C973.999,1098.77 942.477,1057.71 929.015,1051.81C915.554,1045.91 910.467,1050.08 898.614,1040.69C886.761,1031.3 864.532,1016.32 852.615,1025.06ZM882.019,1064.96C858.45,1076.31 803.466,1130.04 793.33,1183.38C783.194,1236.72 779.462,1239.14 782.402,1259.85C785.343,1280.55 818.72,1326.75 827.816,1328.79C836.911,1330.83 929.16,1221.81 935.034,1196.61C940.909,1171.4 938.901,1127.91 934.748,1115.28C930.595,1102.64 902.417,1055.13 882.019,1064.96Z" style="fill:rgb(255,0,191);"/>
                <path d="M964.305,1081.63C966.241,1087.67 979.299,1118.74 1013.75,1112.63C1048.2,1106.52 1060.23,1087.58 1066.14,1098.8C1072.05,1110.02 1058.58,1221.08 1055.5,1249C1052.41,1276.92 1039.63,1350.09 1042.69,1369.6C1045.75,1389.12 1064.76,1409.74 1075.42,1405.56C1086.07,1401.39 1088.91,1394.29 1089.77,1389.42C1090.63,1384.56 1098.86,1258.44 1101.06,1238.58C1103.25,1218.71 1116.26,1086.79 1122.56,1080.7C1128.85,1074.61 1176.75,1048.58 1189.96,1044.41C1203.18,1040.25 1243.36,1037.64 1245.17,1028.96C1246.98,1020.28 1152.8,1025.93 1140.03,1030.36C1127.26,1034.78 1052.73,1056.92 1037.97,1062.14C1023.2,1067.36 1015.43,1075.29 1002.14,1076.39C988.854,1077.49 962.37,1075.59 964.305,1081.63Z" style="fill:rgb(255,0,191);"/>
                <path d="M1267.08,1038.09C1258.48,1042.99 1220.49,1129.34 1208.07,1194.79C1195.66,1260.24 1176.2,1326.68 1177.92,1344.66C1179.63,1362.65 1195.23,1378.68 1201.17,1380.97C1207.11,1383.26 1235.76,1339.83 1237.96,1328.82C1240.16,1317.82 1234.56,1254.57 1238.52,1248.33C1242.48,1242.08 1264.81,1256.2 1274.58,1256.12C1284.35,1256.04 1298.48,1242 1307.76,1239.34C1317.05,1236.68 1321.53,1253.88 1322.23,1264.26C1322.93,1274.63 1329.94,1355.92 1336.58,1358.3C1343.22,1360.68 1361.35,1361.38 1364.23,1355.31C1367.11,1349.23 1330.38,1045.91 1310.63,1040.52C1290.87,1035.13 1275.67,1033.19 1267.08,1038.09ZM1251.61,1220.23C1256.19,1222.29 1301.07,1224.72 1304.48,1220.88C1307.88,1217.05 1290.28,1110.45 1282.72,1110.91C1275.17,1111.37 1247.03,1218.17 1251.61,1220.23Z" style="fill:rgb(255,0,191);"/>
                <path d="M1411.58,1057.85C1394.64,1090.99 1384.22,1127.49 1389.26,1180C1392.24,1211.1 1426.49,1217.8 1443.23,1219.52C1456.13,1220.85 1548.45,1218.17 1554.3,1226.75C1560.15,1235.32 1477.33,1295.75 1460.73,1295.8C1444.14,1295.85 1434.7,1278.3 1428.28,1283.08C1421.86,1287.87 1435.38,1339.96 1447.31,1340.31C1455.19,1340.55 1504.42,1335.71 1543.71,1317.04C1583.3,1298.22 1617.79,1263.21 1607.59,1247.82C1582.85,1210.45 1544.62,1194.55 1525.1,1193.59C1505.59,1192.63 1424.27,1191.07 1418.71,1182.81C1413.15,1174.55 1419.91,1120.48 1440.78,1099.6C1461.63,1078.71 1485.34,1062.61 1501.97,1061.16C1518.59,1059.72 1543.92,1062.96 1541.95,1056.67C1539.97,1050.38 1502.54,1017.07 1490.57,1018.8C1478.6,1020.53 1419.06,1043.21 1411.58,1057.85Z" style="fill:rgb(255,0,191);"/>
            </g>
            <g transform="matrix(0.703416,0,0,0.703416,108.664,659.756)">
                <g transform="matrix(1.25111,0,0,1.25111,-85.5421,-794.326)">
                    <path d="M419.871,876.03C419.871,876.03 411.164,980.393 411.443,998.855C411.721,1017.32 412.982,1098.46 413.975,1121.19C414.967,1143.91 419.561,1235.46 419.561,1235.46L750.425,1222.9L800.975,1214.6L786.651,855.844L594.871,860.466L419.871,876.03Z" style="fill:rgb(255,250,140);"/>
                </g>
                <path d="M427.996,294.102C422.592,301.631 429.616,307.365 428.421,318.63C427.226,329.895 421.654,428.269 420.501,452.986C419.349,477.703 422.776,536.287 423.148,558.426C423.519,580.565 426.062,645.173 426.644,668.007C427.226,690.841 428.572,723.97 427.436,736.133C426.299,748.296 419.113,761.878 427.803,763.427C436.493,764.976 536.7,763.413 560.036,762.573C583.373,761.733 693.458,756.376 710.929,753.958C728.4,751.539 806.47,747.833 824.195,747.138C841.92,746.443 881.592,747.572 885.618,743.996C889.644,740.419 892.326,723.768 885.193,722.595C878.06,721.422 710.78,732.484 695.959,731.818C681.139,731.152 528.627,738.826 518.006,739.391C507.384,739.956 451.452,741.78 449.533,740.868C447.613,739.956 445.695,670.193 445.727,650.168C445.759,630.143 445.887,551.461 444.433,537.286C442.979,523.11 440.477,464.41 440.338,451.133C440.199,437.855 444.807,365.776 445.051,353.859C445.296,341.942 446.74,315.271 447.871,313.78C449.003,312.288 507.125,311.014 522.313,309.103C537.502,307.192 628.873,297.577 645.276,294.044C661.678,290.511 737.251,285.646 757.383,285.067C777.515,284.488 824.438,283.127 837.58,282.417C850.723,281.708 888.393,281.041 891.567,283.46C894.741,285.878 898.053,315.937 898.019,326.623C897.984,337.309 900.217,417.873 899.796,431.339C899.374,444.805 903.502,509.876 903.292,529.467C903.081,549.058 903.387,592.873 904.393,608.728C905.398,624.583 908.178,650.646 906.788,667.269C905.398,683.891 903.505,725.621 906.537,729.545C909.568,733.469 920.588,737.581 923.418,732.745C926.248,727.909 927.927,632.662 925.698,620.282C923.468,607.902 924.605,554.965 924.036,544.598C923.468,534.231 922.904,473.938 922.259,464.237C921.615,454.535 916.644,397.283 917.044,389.768C917.445,382.253 915.522,325.494 915.557,315.184C915.591,304.875 915.83,281.881 914.089,277.624C912.348,273.367 900.252,264.014 896.106,262.435C891.961,260.857 790.703,257.643 771.367,260.408C752.031,263.174 606.968,274.352 593.549,277.566C580.13,280.781 509.262,289.353 497.203,290.164C485.144,290.974 433.399,286.573 427.996,294.102Z" style="fill:rgb(255,0,206);"/>
                <path d="M678.113,415.171C684.914,409.119 723.921,387.666 728.292,378.288C735.334,363.181 731.59,338.542 768.925,322.194C806.261,305.845 847.266,329.223 855.648,336.414C864.03,343.605 881.686,386.23 880.522,431.721C879.313,478.991 877.236,528.359 861.394,548.822C845.551,569.285 779.715,569.093 768.03,560.924C756.345,552.755 746.526,509.791 745.99,492.102C745.454,474.412 747.369,422.735 737.708,415.231C728.047,407.728 727.53,411.459 714.613,413.678C701.696,415.897 671.312,421.222 678.113,415.171ZM716.919,400.738C750.208,385.504 740.299,371.636 749.756,356.08C762.329,335.401 779.715,331.896 792.729,330.524C805.743,329.153 838.104,338.703 845.137,346.278C852.17,353.852 857.987,365.701 861.517,376.271C866.023,389.766 868.943,417.471 867.916,437.611C867.382,448.068 867.804,474.3 864.626,495.83C861.563,516.576 854.943,532.734 852.008,537.869C845.911,548.535 783.424,555.014 775.144,544.969C771.018,539.964 763.46,524.35 760.869,501.747C757.978,476.518 756.432,446.474 756.897,440.929C757.321,435.877 752.775,417.262 747.383,407.499C740.977,395.901 710.451,403.698 716.919,400.738Z" style="fill:rgb(255,0,206);"/>
                <g transform="matrix(1,0,0,1,2.15309,10.156)">
                    <path d="M757.14,378.944C753.656,372.005 749.813,366.257 757.221,362.838C764.629,359.419 831.839,353.993 838.898,355.899C845.957,357.805 853.876,365.994 849.11,370.291C844.343,374.587 760.624,385.883 757.14,378.944Z" style="fill:rgb(255,0,206);"/>
                </g>
                <g transform="matrix(1,0,0,1,8.59011,9.42981)">
                    <path d="M764.997,399.236C769.147,398.147 788.82,391.732 795.604,396.714C802.388,401.697 806.845,406.477 801.066,409.089C795.288,411.701 769.966,418.095 766.49,413.93C763.015,409.765 760.847,400.325 764.997,399.236Z" style="fill:rgb(255,0,206);"/>
                </g>
                <g transform="matrix(1,0,0,1,11.3556,10.3778)">
                    <path d="M813.161,405.489C811.102,402.342 806.263,395.605 811.749,393.971C817.234,392.337 821.662,387.577 827.355,392.216C833.048,396.856 835.356,401.757 832.266,403.179C829.175,404.601 815.22,408.635 813.161,405.489Z" style="fill:rgb(255,0,206);"/>
                </g>
                <g transform="matrix(0.99489,0.100966,-0.100966,0.99489,44.4254,-63.7181)">
                    <path d="M776.406,437.49C772.697,432.679 771.916,425.68 780.859,424.338C789.802,422.997 838.382,412.528 846.204,413.89C854.025,415.251 859.584,421.363 856.159,425.407C852.734,429.451 824.691,432.618 816.928,433.455C809.166,434.292 780.114,442.3 776.406,437.49Z" style="fill:rgb(255,0,206);"/>
                </g>
                <g transform="matrix(1,0,0,1,2.15198,19.5656)">
                    <path d="M770.257,452.133C773.988,450.752 794.067,449.925 798.551,449.693C803.034,449.461 820.073,444.095 824.785,450.167C829.498,456.238 831.96,461.684 824.92,463.479C817.879,465.275 789.614,467.554 782.608,466.737C775.602,465.92 766.527,453.515 770.257,452.133Z" style="fill:rgb(255,0,206);"/>
                </g>
                <g transform="matrix(0.999008,0.044527,-0.044527,0.999008,19.9924,-15.4622)">
                    <path d="M781.491,485.456C783.993,484.961 822.23,481.089 830.221,480.443C838.212,479.798 846.615,474.271 849.836,481.552C853.057,488.834 853.636,491.94 851.41,494.744C849.184,497.548 837.021,501.199 829.871,500.826C822.72,500.452 792.225,504.829 785.043,502.157C777.861,499.484 778.99,485.95 781.491,485.456Z" style="fill:rgb(255,0,206);"/>
                </g>
                <path d="M534.788,538.601C538.114,535.333 541.544,520.218 538.228,518.351C534.913,516.483 505.529,521.307 504.038,516.228C502.547,511.148 503.457,501.256 506.914,497.489C510.372,493.721 514.521,489.053 516.003,484.985C517.485,480.917 519.264,460.377 516.418,456.243C513.573,452.108 502.208,443.972 503.089,438.259C503.97,432.547 511.529,425.811 517.886,422.777C524.243,419.743 532.859,420.365 537.62,414.897C542.382,409.428 543.451,398.959 548.785,392.99C554.119,387.022 573.892,378.085 581.611,380.775C589.329,383.465 595.667,406.094 602.101,408.473C608.535,410.851 629.099,407.205 632.332,412.585C635.566,417.964 633.638,457.087 636.202,461.711C638.767,466.335 653.574,465.512 655.417,471.436C657.261,477.36 658.671,484.94 654.943,487.197C651.215,489.453 633.633,493.854 631.398,492.72C629.164,491.587 628.887,473.67 627.959,469.647C627.03,465.623 614.11,438.348 609.722,434.38C605.334,430.413 586.285,422.944 585.139,429.523C583.994,436.103 597.326,448.751 601.864,455.053C606.401,461.355 614.879,474.07 608.684,486.207C602.489,498.344 588.294,506.88 579.209,502.968C570.123,499.056 560.562,486.763 558.763,477.616C556.964,468.469 552.134,460.755 547.791,466.39C543.449,472.025 542.769,486.808 548.266,495.599C553.763,504.391 567.356,508.17 565.361,514.105C563.366,520.04 554.033,528.887 550.519,534.066C547.005,539.246 543.177,547.871 541.712,557.429C540.248,566.988 538.435,649.88 541.297,654.848C544.16,659.816 595.32,653.014 610.997,647.345C626.674,641.677 654.85,629.673 657.3,622.516C659.751,615.358 660.334,588.35 657.908,582.114C655.483,575.879 642.062,559.007 643.26,553.75C644.457,548.493 661.145,544.87 668.984,540.813C676.823,536.756 689.444,525.486 693.803,520.807C698.163,516.128 707.57,505.369 710.335,501.501C713.1,497.633 717.509,495.877 721.351,490.887C725.193,485.896 725.418,467.78 716.592,465.634C707.765,463.489 700.888,464.067 697.569,473.559C694.25,483.051 701.748,491.364 697.999,497.344C694.25,503.324 675.846,519.773 669.221,523.641C662.596,527.509 645.083,534.933 640.68,533.355C636.277,531.777 625.685,519.129 626.535,515.138C627.385,511.148 636.163,505.613 642.088,505.891C648.014,506.169 659.45,501.479 663.335,497.066C667.22,492.654 670.334,483.162 670.022,475.637C669.709,468.113 662.26,460.911 657.627,459.355C652.993,457.799 649.477,440.793 649.101,432.402C648.725,424.011 654.454,412.985 646.61,407.294C638.767,401.604 611.946,400.87 610.063,396.436C608.18,392.001 597.906,364.192 588.105,363.87C578.304,363.548 547.473,373.373 540.304,380.019C533.134,386.666 531.099,395.535 525.892,400.881C520.686,406.227 509.233,408.384 503.045,412.107C496.857,415.83 491.673,419.165 489.108,429.057C486.542,438.948 493.37,450.93 496.358,459.166C499.346,467.402 504.932,470.291 499.471,479.694C494.011,489.097 488.262,494.01 486.513,504.002C484.764,513.994 482.664,523.508 490.472,532.088C498.279,540.668 531.463,541.869 534.788,538.601ZM589.899,520.662C580.082,522.174 564.382,541.157 561.128,549.204C557.873,557.251 557.421,632.697 559.148,637.898C560.876,643.1 627.412,631.229 634.69,622.227C641.968,613.224 639.686,592.929 637.803,584.048C635.921,575.168 623.963,555.984 623.718,548.504C623.473,541.024 614.614,529.643 610.152,524.486C605.69,519.329 599.715,519.151 589.899,520.662Z" style="fill:rgb(255,0,206);"/>
                <path d="M756.871,684.43C763.338,683.441 804.188,645.803 807.484,637.19C810.779,628.577 809.212,618.471 802.089,615.779C794.966,613.086 786.117,615.99 781.666,618.734C777.215,621.477 771.582,630.433 769.235,627.891C766.888,625.35 760.079,607.72 749.606,606.692C739.133,605.663 733.784,608.668 730.165,616.848C726.546,625.027 728.111,639.005 732.008,649.605C735.906,660.205 750.404,685.418 756.871,684.43Z" style="fill:rgb(255,0,206);"/>
                <path d="M687.383,695.604C689.755,690.864 701.833,672.771 701.442,664.551C701.051,656.332 700.375,649.111 695.549,647.719C690.723,646.327 687.185,646.327 683.629,651.491C680.073,656.655 676.713,659.519 673.714,657.441C670.714,655.364 663.357,647.941 656.869,651.491C650.382,655.041 649.366,663.21 650.196,669.776C651.027,676.341 660.864,686.346 664.821,689.735C668.777,693.123 685.01,700.344 687.383,695.604Z" style="fill:rgb(255,0,206);"/>
            </g>
        </g>
    </g>
</svg>
