<?xml version="1.0" encoding="UTF-8" standalone="no"?>
<!DOCTYPE svg PUBLIC "-//W3C//DTD SVG 1.1//EN" "http://www.w3.org/Graphics/SVG/1.1/DTD/svg11.dtd">
<svg width="100%" height="100%" viewBox="0 0 325 94" version="1.1" xmlns="http://www.w3.org/2000/svg" xmlns:xlink="http://www.w3.org/1999/xlink" xml:space="preserve" xmlns:serif="http://www.serif.com/" style="fill-rule:evenodd;clip-rule:evenodd;stroke-linejoin:round;stroke-miterlimit:2;">
    <g transform="matrix(1,0,0,1,-1098.19,-940.533)">
        <path d="M1392.38,962.953C1392.38,962.953 1390.44,971.382 1387.38,981.126C1384.94,988.88 1381.4,997.632 1380.42,1002.45C1378.7,1010.89 1378.32,1022.82 1387.2,1029.9C1392.6,1034.21 1402.99,1032.63 1407.99,1029.9C1413,1027.18 1417.58,1026.36 1418.85,1024C1420.13,1021.64 1420.92,1022.76 1421.53,1021.38C1422.15,1020.01 1420.55,1019.83 1421.11,1018.04C1421.67,1016.26 1422.42,1014.87 1422.42,1014.87C1422.42,1014.87 1406.31,1024.62 1391.98,1021.33C1386.83,1020.15 1390.44,1004.71 1391.76,1001.35C1393.09,997.992 1395.43,987.763 1396.71,984.638C1397.99,981.512 1400.09,978.847 1400.43,976.909C1400.76,974.971 1398.95,974.157 1399.56,972.663C1400.17,971.17 1402.31,971.457 1402.79,968.748C1403.28,966.039 1404.18,964.477 1401.11,962.843C1398.13,961.264 1392.38,962.953 1392.38,962.953Z"/>
        <path d="M1261.2,966.675C1260.01,968.464 1257.52,973.827 1257.18,976.145C1256.85,978.463 1257.62,978.073 1256.55,980.49C1255.48,982.907 1254.73,984.172 1253.48,987.172C1252.23,990.172 1249.64,995.769 1248.5,999.167C1247.36,1002.56 1247.98,1005.51 1245.75,1009.21C1243.51,1012.9 1242.08,1013.08 1241.69,1014.96C1241.29,1016.84 1241.89,1019.75 1243.73,1020.6C1245.57,1021.45 1246.06,1021.51 1248.63,1024C1251.2,1026.49 1252.86,1026.98 1254.38,1026.31C1255.91,1025.64 1256.58,1022.72 1256.84,1021.1C1257.1,1019.49 1256.93,1014.71 1257.44,1013.16C1257.96,1011.62 1258.98,1009.73 1259.15,1008.07C1259.32,1006.41 1259.07,1004.98 1259.54,1003.26C1260.01,1001.54 1261.33,1000.12 1261.65,998.181C1261.97,996.239 1262.49,994.301 1262.7,992.578C1262.91,990.855 1262,990.019 1264.42,989.754C1266.85,989.488 1266.34,993.184 1268.05,996.037C1269.75,998.889 1271.12,1001.31 1273.51,1002.37C1275.9,1003.42 1278.23,1003.17 1280.87,1000.86C1283.51,998.547 1285.28,997.746 1287.51,994.984C1289.75,992.223 1291,990.019 1292.42,989.754C1293.85,989.488 1293.98,1001.28 1294.09,1006.5C1294.19,1011.71 1293.62,1027.29 1294.67,1028.81C1295.73,1030.34 1296.79,1030.19 1297.2,1028.81C1297.61,1027.43 1300.85,1008.27 1301.24,1005.59C1301.63,1002.91 1303.22,986.267 1302.89,982.622C1302.57,978.976 1302.01,974.612 1299.21,973.162C1296.41,971.712 1293.84,973.469 1292.22,974.342C1290.6,975.216 1285.62,980.691 1283.92,982.611C1282.23,984.531 1278.33,990.532 1277.16,989.754C1275.99,988.975 1275.85,983.693 1275.28,979.967C1274.71,976.241 1273.56,974.062 1273.41,972.075C1273.25,970.088 1273.88,968.341 1272.58,966.608C1271.29,964.875 1262.39,964.886 1261.2,966.675Z"/>
        <path d="M1329.2,965.32C1324.85,964.922 1323.24,966.211 1321.2,967.273C1319.16,968.334 1320.09,969.04 1318.49,971.165C1316.89,973.29 1316.34,974.432 1315.19,975.608C1314.04,976.783 1314.85,978.911 1314.12,980.975C1313.39,983.039 1310.44,988.939 1308.51,994.194C1306.57,999.45 1303.29,1006.47 1302.94,1010.47C1302.59,1014.48 1299.34,1026.9 1299.95,1028.81C1300.56,1030.73 1303.39,1029.89 1305.26,1029.9C1307.14,1029.91 1308.05,1032.71 1310.88,1031.88C1313.72,1031.05 1313.85,1028.24 1314.07,1026.35C1314.29,1024.47 1313.43,1022.51 1313.45,1020.61C1313.48,1018.7 1314.57,1015.8 1314.55,1014.41C1314.53,1013.02 1314.16,1011.73 1314.92,1011.36C1315.67,1010.99 1319.44,1012.3 1321.9,1011.56C1324.36,1010.82 1326.69,1010.4 1327.35,1009.39C1328.02,1008.39 1328.14,1006.65 1327.67,1005.57C1327.21,1004.49 1318.2,1003.59 1317.95,1002.82C1317.7,1002.05 1321.01,990.167 1322.52,987.172C1324.04,984.176 1328.6,974.412 1330.1,974.744C1331.59,975.077 1334.61,990.493 1334.93,993.956C1335.25,997.419 1335.22,1008.21 1335.15,1012.4C1335.09,1016.59 1335.96,1019.04 1335.2,1020.5C1334.44,1021.95 1333.49,1022.72 1333.96,1024C1334.44,1025.29 1334.98,1024.71 1335.32,1025.52C1335.65,1026.34 1335.32,1029.01 1336.74,1028.81C1338.17,1028.62 1340.02,1022.1 1340.68,1019.35C1341.34,1016.59 1343.35,1002.48 1341.74,990.891C1340.12,979.302 1339.21,972.223 1337.59,969.71C1335.98,967.196 1333.56,965.719 1329.2,965.32Z"/>
        <path d="M1353.22,965.246C1352.06,965.732 1352.19,969.545 1351.4,972.142C1349.92,977.05 1347.47,974.88 1347.03,976.016C1346.62,977.076 1348.77,976.829 1348.75,978.959C1348.74,981.089 1346.09,992.894 1346.4,1001.33C1346.7,1009.77 1348.22,1018.75 1354.37,1024.01C1360.52,1029.27 1368.33,1027.09 1370.96,1025.99C1373.6,1024.88 1375.63,1021.98 1375.99,1020.95C1376.36,1019.92 1376.41,1016.89 1375.74,1016.78C1375.06,1016.67 1372.35,1020.2 1363.94,1018.93C1359.97,1018.32 1356.96,1014.55 1356.06,1012.57C1355.15,1010.58 1354.28,1005.45 1354.76,1004.85C1355.23,1004.24 1359,1004.64 1362.44,1003.67C1365.88,1002.7 1368.78,1001.54 1369.97,1000.01C1371.16,998.475 1372.61,996.164 1372.09,995.37C1371.56,994.575 1369.82,995.52 1368.38,995.778C1366.93,996.037 1356.35,996.576 1355.02,995.131C1354.14,994.179 1355.82,983.221 1356.83,980.749C1357.37,979.427 1358.91,981.698 1361.09,980.297C1363.28,978.895 1366.36,976.458 1367.66,975.623C1368.96,974.787 1375.11,971.842 1375.17,970.616C1375.22,969.39 1371.61,967.181 1368.51,966.902C1363.15,966.419 1360.65,969.71 1358.35,969.225C1356.05,968.74 1354.38,964.76 1353.22,965.246Z"/>
        <path d="M1209.35,972.346C1208.81,976.708 1211.55,985.363 1213.61,987.172C1215.66,988.981 1230.9,997.437 1230.85,999.038C1230.8,1000.64 1211.53,1014.56 1208.43,1016.29C1205.34,1018.02 1203.86,1018.04 1204.49,1019.52C1205.13,1020.99 1206.73,1023.84 1211.45,1024C1216.18,1024.16 1222.46,1021.69 1225.81,1019.86C1229.16,1018.02 1240.3,1010.64 1241.53,1007.02C1242.77,1003.4 1242.9,1000.93 1241.91,998.946C1240.92,996.958 1219.47,982.129 1219.2,980.134C1218.94,978.14 1221.25,973.877 1225.46,971.151C1229.68,968.425 1233.55,966.865 1235.14,967.798C1236.73,968.731 1237.53,970.093 1239.12,970.026C1240.72,969.959 1240.94,968.719 1242.21,968.572C1243.48,968.425 1244.02,968.917 1244.83,967.392C1245.63,965.868 1246.08,963.062 1245.45,961.703C1244.81,960.345 1235.01,956.159 1226.98,958.15C1218.94,960.141 1209.9,967.983 1209.35,972.346Z"/>
        <path d="M1175.68,954.964C1174.8,959.288 1174.98,972.318 1174.27,979.143C1173.57,985.969 1174.45,991.959 1172.55,995.594C1170.66,999.229 1170.51,999.128 1169.34,999.772C1168.18,1000.42 1168.79,1000.22 1169.34,1003.34C1169.9,1006.45 1164.94,1017.89 1165.59,1021.6C1166.24,1025.32 1166.52,1028.4 1169.34,1028.8C1172.16,1029.2 1177.99,1021.24 1179.55,1015.41C1181.11,1009.58 1180.83,1002.48 1181.78,1000.26C1182.73,998.043 1183.57,996.547 1184.61,997.026C1185.64,997.504 1186.53,1002.34 1189.64,1006.28C1192.76,1010.23 1199.24,1016.28 1200.31,1016.38C1201.38,1016.48 1202.57,1012.92 1202.14,1011.79C1201.7,1010.66 1198.1,1007.14 1195.43,1002.59C1192.76,998.043 1190.37,993.987 1190.7,991.487C1191.03,988.987 1192.61,986.737 1195.27,984.035C1197.93,981.333 1199.36,980.033 1201.39,977.125C1203.43,974.218 1203.09,973.423 1205.31,971.718C1207.53,970.013 1209.22,968.962 1210.21,966.523C1211.19,964.084 1212.07,962.588 1210.88,962.42C1209.68,962.251 1208.6,962.002 1206.82,962.719C1205.05,963.437 1196.82,968.888 1192.85,972.577C1188.88,976.266 1181.86,984.102 1180.95,983.418C1180.04,982.735 1180.25,976.36 1180.95,972.432C1181.65,968.504 1180.38,968.255 1182.36,963.636C1184.35,959.017 1185.54,956.928 1184.62,955.493C1183.7,954.058 1181.76,952.34 1179.55,953.199C1177.34,954.058 1175.96,953.575 1175.68,954.964Z"/>
        <path d="M1131.55,955.854C1131.2,956.399 1132.7,958.743 1132.3,962.03C1131.9,965.317 1129.46,986.417 1128.67,995.588C1127.89,1004.76 1127.45,1013.67 1128.38,1018.01C1129.31,1022.35 1132.21,1026.58 1133.71,1026.3C1135.21,1026.01 1133.83,1020.32 1134.22,1016.91C1134.62,1013.5 1137.21,1003.38 1137.8,999.584C1138.4,995.788 1138.37,986.697 1139.45,985.28C1140.52,983.864 1143.82,990.29 1144.59,997.702C1145.36,1005.11 1145.05,1010.55 1147.68,1016.33C1150.32,1022.12 1151.87,1024.11 1154.58,1024C1157.29,1023.89 1158.55,1020.46 1159.33,1018.27C1160.12,1016.09 1161.9,1003.25 1162.13,999.222C1162.36,995.197 1162.85,987.627 1163.55,983.384C1164.25,979.141 1164.36,978.787 1164.84,976.367C1165.31,973.947 1164.36,973.393 1165.37,971.899C1166.38,970.405 1167.38,969.313 1168.12,967.261C1168.86,965.21 1170.11,962.775 1168.71,962.045C1167.32,961.314 1163.86,962.591 1162.76,962.189C1161.65,961.786 1161.58,960.953 1160.85,964.911C1160.12,968.87 1159.02,972.582 1157.21,976.865C1155.4,981.148 1153.64,988.704 1152.45,989.885C1151.26,991.065 1144.42,971.408 1144.12,968.782C1143.83,966.155 1145.23,963.085 1144.59,961.137C1143.94,959.189 1142.15,958.547 1141.87,956.861C1141.58,955.175 1141,954.304 1139.46,953.913C1137.92,953.522 1135.53,953.131 1135.49,953.209C1135.44,953.286 1136.25,955.73 1135.6,956.171C1134.94,956.612 1131.9,955.309 1131.55,955.854Z"/>
        <path d="M1105.35,945.699C1104.25,951.273 1103.57,964.046 1102.14,976.737C1100.72,989.23 1098.41,1000.98 1098.23,1007.16C1097.86,1019.62 1100.07,1034.82 1104.56,1033.76C1109.89,1032.5 1106.25,1026.14 1109.69,1013.23C1111.9,1004.94 1114.1,996.288 1115.55,987.889C1117.01,979.489 1116.99,964.848 1118.66,957.341C1120.34,949.834 1122.38,942.528 1120.61,941.794C1118.83,941.06 1114.67,939.977 1111.59,940.869C1108.6,941.73 1105.82,943.281 1105.35,945.699Z"/>
    </g>
</svg>
